<?xml version="1.0" encoding="UTF-8" standalone="no"?>
<!DOCTYPE svg PUBLIC "-//W3C//DTD SVG 1.1//EN" "http://www.w3.org/Graphics/SVG/1.1/DTD/svg11.dtd">
<svg width="100%" height="100%" viewBox="0 0 78 91" version="1.1" xmlns="http://www.w3.org/2000/svg" xmlns:xlink="http://www.w3.org/1999/xlink" xml:space="preserve" xmlns:serif="http://www.serif.com/" style="fill-rule:evenodd;clip-rule:evenodd;stroke-linejoin:round;stroke-miterlimit:1.41421;">
    <g transform="matrix(1,0,0,1,-11.0287,-5)">
        <g transform="matrix(1,0,0,1,0,-952.362)">
            <path d="M50,957.362L11.029,979.862L11.029,1024.86L12.319,1025.61L50,1047.36L88.971,1024.86L88.971,979.862L50,957.362ZM50,964.957L65.566,987.982L34.434,987.982L50,964.957ZM41.575,968.193L28.776,987.125L18.78,981.354L41.575,968.193ZM58.426,968.193L81.22,981.353L71.225,987.124L58.426,968.193ZM16.196,985.828L26.193,991.599L16.196,1012.15L16.196,985.828ZM83.804,985.828L83.804,1012.15L73.807,991.599L83.802,985.828L83.804,985.828ZM34.044,993.148L65.956,993.148L50,1020.78L34.044,993.148ZM29.764,996.07L45.331,1023.03L17.608,1021.06L29.764,996.07ZM70.236,996.07L82.393,1021.06L54.671,1023.03L70.236,996.07ZM24.619,1026.74L47.416,1028.36L47.416,1039.9L24.619,1026.74ZM75.382,1026.74L52.584,1039.9L52.584,1028.36L75.382,1026.74Z" style="fill-rule:nonzero;"/>
        </g>
    </g>
</svg>
